<svg width="24" height="24" viewBox="0 0 24 24" fill="none" xmlns="http://www.w3.org/2000/svg">
    <path fill-rule="evenodd" clip-rule="evenodd"
        d="M4 4C4.55228 4 5 4.17472 5 4.39024V19.6098C5 19.8253 4.55228 20 4 20C3.44772 20 3 19.8253 3 19.6098V4.39024C3 4.17472 3.44772 4 4 4Z"
        fill="black" />
    <path fill-rule="evenodd" clip-rule="evenodd"
        d="M9 4C9.55228 4 10 4.17472 10 4.39025V19.6098C10 19.8253 9.55228 20 9 20C8.44772 20 8 19.8253 8 19.6098V4.39025C8 4.17472 8.44772 4 9 4Z"
        fill="black" />
    <mask id="path-3-inside-1_2_37" fill="white">
        <path fill-rule="evenodd" clip-rule="evenodd"
            d="M20 7.56202V19.2264C20 19.6536 19.6518 20 19.2222 20H13.7778C13.3482 20 13 19.6536 13 19.2264V4.77466C13 4.1956 13.6161 3.8218 14.1337 4.0868L19.5781 6.87416C19.8372 7.00676 20 7.27224 20 7.56202ZM19 19V7.56202L14 5V19H19Z" />
    </mask>
    <path fill-rule="evenodd" clip-rule="evenodd"
        d="M20 7.56202V19.2264C20 19.6536 19.6518 20 19.2222 20H13.7778C13.3482 20 13 19.6536 13 19.2264V4.77466C13 4.1956 13.6161 3.8218 14.1337 4.0868L19.5781 6.87416C19.8372 7.00676 20 7.27224 20 7.56202ZM19 19V7.56202L14 5V19H19Z"
        fill="black" />
    <path
        d="M14.1337 4.0868L13.678 4.97692L13.678 4.97692L14.1337 4.0868ZM19.5781 6.87416L19.1224 7.76428L19.1225 7.76433L19.5781 6.87416ZM19 19V20H20V19H19ZM19 7.56202H20V6.95078L19.456 6.67205L19 7.56202ZM14 5L14.456 4.11003L13 3.36396V5H14ZM14 19H13V20H14V19ZM19 7.56202V19.2264H21V7.56202H19ZM19 19.2264C19 19.0963 19.1045 19 19.2222 19V21C20.199 21 21 20.211 21 19.2264H19ZM19.2222 19H13.7778V21H19.2222V19ZM13.7778 19C13.8955 19 14 19.0963 14 19.2264H12C12 20.211 12.801 21 13.7778 21V19ZM14 19.2264V4.77466H12V19.2264H14ZM14 4.77466C14 4.95194 13.8179 5.04858 13.678 4.97692L14.5894 3.19667C13.4142 2.59501 12 3.43926 12 4.77466H14ZM13.678 4.97692L19.1224 7.76428L20.0338 5.98403L14.5894 3.19667L13.678 4.97692ZM19.1225 7.76433C19.0492 7.7268 19 7.64959 19 7.56202H21C21 6.8949 20.6252 6.28673 20.0338 5.98399L19.1225 7.76433ZM20 19V7.56202H18V19H20ZM19.456 6.67205L14.456 4.11003L13.544 5.88997L18.544 8.45198L19.456 6.67205ZM13 5V19H15V5H13ZM14 20H19V18H14V20Z"
        fill="black" mask="url(#path-3-inside-1_2_37)" />
</svg>