<svg width="24" height="24" viewBox="0 0 24 24" fill="none" xmlns="http://www.w3.org/2000/svg">
    <path fill-rule="evenodd" clip-rule="evenodd"
        d="M4 4C4.55228 4 5 4.17472 5 4.39024V19.6098C5 19.8252 4.55228 20 4 20C3.44772 20 3 19.8252 3 19.6098V4.39024C3 4.17472 3.44772 4 4 4Z"
        fill="black" />
    <path fill-rule="evenodd" clip-rule="evenodd"
        d="M9 4C9.55228 4 10 4.17472 10 4.39024V19.6098C10 19.8252 9.55228 20 9 20C8.44772 20 8 19.8252 8 19.6098V4.39024C8 4.17472 8.44772 4 9 4Z"
        fill="black" />
    <path fill-rule="evenodd" clip-rule="evenodd"
        d="M20 7.56202V19.2264C20 19.6536 19.6518 20 19.2222 20H13.7778C13.3482 20 13 19.6536 13 19.2264V4.77466C13 4.1956 13.6161 3.8218 14.1337 4.0868L19.5781 6.87416C19.8372 7.00676 20 7.27224 20 7.56202Z"
        fill="black" />
</svg>