<svg width="48" height="48" viewBox="0 0 48 48" fill="none" xmlns="http://www.w3.org/2000/svg">
    <path
        d="M48 24C48 37.2548 37.2548 48 24 48C10.7452 48 0 37.2548 0 24C0 10.7452 10.7452 0 24 0C37.2548 0 48 10.7452 48 24Z"
        fill="white" />
    <path
        d="M21 32.3333C21 32.7015 20.7015 33 20.3333 33H17C16.45 33 15.9792 32.8042 15.5875 32.4125C15.1958 32.0208 15 31.55 15 31V24C15 22.75 15.2375 21.5792 15.7125 20.4875C16.1875 19.3958 16.8292 18.4458 17.6375 17.6375C18.4458 16.8292 19.3958 16.1875 20.4875 15.7125C21.5792 15.2375 22.75 15 24 15C25.25 15 26.4208 15.2375 27.5125 15.7125C28.6042 16.1875 29.5542 16.8292 30.3625 17.6375C31.1708 18.4458 31.8125 19.3958 32.2875 20.4875C32.7625 21.5792 33 22.75 33 24V31C33 31.55 32.8042 32.0208 32.4125 32.4125C32.0208 32.8042 31.55 33 31 33H27.6667C27.2985 33 27 32.7015 27 32.3333V25.6667C27 25.2985 27.2985 25 27.6667 25H31V24C31 22.05 30.3208 20.3958 28.9625 19.0375C27.6042 17.6792 25.95 17 24 17C22.05 17 20.3958 17.6792 19.0375 19.0375C17.6792 20.3958 17 22.05 17 24V25H20.3333C20.7015 25 21 25.2985 21 25.6667V32.3333Z"
        fill="#191414" />
</svg>