<svg width="48" height="48" viewBox="0 0 48 48" fill="none" xmlns="http://www.w3.org/2000/svg">
    <path
        d="M31.7614 42.4273C41.9384 38.1427 46.717 26.4118 42.4234 16.2348C38.1299 6.05781 26.408 1.2882 16.231 5.57277C6.05401 9.85734 1.2844 21.5883 5.57795 31.7652C8.69482 39.1756 15.9615 43.9992 24.0007 43.9992C26.6685 43.9992 29.3093 43.4692 31.7614 42.4273ZM6.75464 24.0584C6.75464 14.5371 14.4794 6.81233 24.0007 6.81233C33.522 6.81233 41.2468 14.5371 41.2468 24.0584C41.2468 33.5797 33.522 41.3045 24.0007 41.3045C14.4794 41.3045 6.75464 33.5797 6.75464 24.0584ZM33.4029 25.6236C33.9297 26.1478 33.9307 27.0001 33.4052 27.5256L24.7669 36.1639C24.3437 36.587 23.6577 36.587 23.2345 36.1639L14.5959 27.5253C14.0702 26.9996 14.0702 26.1473 14.5959 25.6216V25.6216C15.1218 25.0957 15.9746 25.096 16.5002 25.6222L22.6192 31.749C22.6318 31.7616 22.6534 31.7527 22.6534 31.7348V14.4293C22.6534 13.6852 23.2566 13.082 24.0007 13.082V13.082C24.7448 13.082 25.348 13.6852 25.348 14.4293V31.7347C25.348 31.7526 25.3697 31.7616 25.3823 31.7489L31.5054 25.6258C32.0292 25.1021 32.878 25.1011 33.4029 25.6236V25.6236Z"
        fill="black" />
</svg>