<svg width="48" height="48" viewBox="0 0 48 48" fill="none" xmlns="http://www.w3.org/2000/svg">
    <mask id="mask0_22_45" style="mask-type:alpha" maskUnits="userSpaceOnUse" x="0" y="0" width="48" height="48">
        <rect width="48" height="48" fill="#D9D9D9" />
    </mask>
    <g mask="url(#mask0_22_45)">
        <circle cx="24" cy="24" r="21.375" stroke="#1C1B1F" stroke-width="1.25" />
        <path
            d="M22.9869 28.9738V16.048C22.9869 15.7453 23.0859 15.4949 23.2838 15.2969C23.4818 15.099 23.7322 15 24.0349 15C24.3377 15 24.5881 15.099 24.786 15.2969C24.984 15.4949 25.083 15.7453 25.083 16.048V29.0437L30.2183 23.9083C30.4279 23.6987 30.6725 23.5939 30.952 23.5939C31.2314 23.5939 31.476 23.6987 31.6856 23.9083C31.8952 24.1179 32 24.3624 32 24.6419C32 24.9214 31.8952 25.1659 31.6856 25.3755L24.7336 32.3275C24.524 32.5371 24.2795 32.6419 24 32.6419C23.7205 32.6419 23.476 32.5371 23.2664 32.3275L16.3144 25.3755C16.1048 25.1659 16 24.9214 16 24.6419C16 24.3624 16.1048 24.1179 16.3144 23.9083C16.524 23.6987 16.7744 23.5881 17.0655 23.5764C17.3566 23.5648 17.607 23.6638 17.8166 23.8734L22.9869 28.9738Z"
            fill="#1C1B1F" />
    </g>
</svg>