<svg width="48" height="48" viewBox="0 0 48 48" fill="none" xmlns="http://www.w3.org/2000/svg">
    <mask id="mask0_25_71" style="mask-type:alpha" maskUnits="userSpaceOnUse" x="0" y="0" width="48" height="48">
        <rect width="48" height="48" fill="#D9D9D9" />
    </mask>
    <g mask="url(#mask0_25_71)">
        <path fill-rule="evenodd" clip-rule="evenodd"
            d="M24 46C36.1503 46 46 36.1503 46 24C46 11.8497 36.1503 2 24 2C11.8497 2 2 11.8497 2 24C2 36.1503 11.8497 46 24 46ZM22.9869 16.048V28.9738L17.8166 23.8734C17.607 23.6638 17.3566 23.5648 17.0655 23.5764C16.7744 23.5881 16.524 23.6987 16.3144 23.9083C16.1048 24.1179 16 24.3624 16 24.6419C16 24.9214 16.1048 25.1659 16.3144 25.3755L23.2664 32.3275C23.476 32.5371 23.7205 32.6419 24 32.6419C24.2795 32.6419 24.524 32.5371 24.7336 32.3275L31.6856 25.3755C31.8952 25.1659 32 24.9214 32 24.6419C32 24.3624 31.8952 24.1179 31.6856 23.9083C31.476 23.6987 31.2314 23.5939 30.952 23.5939C30.6725 23.5939 30.4279 23.6987 30.2183 23.9083L25.083 29.0437V16.048C25.083 15.7453 24.984 15.4949 24.786 15.2969C24.5881 15.099 24.3377 15 24.0349 15C23.7322 15 23.4818 15.099 23.2838 15.2969C23.0859 15.4949 22.9869 15.7453 22.9869 16.048Z"
            fill="#1C1B1F" />
    </g>
</svg>